<?xml version="1.0" encoding="UTF-8"?>
<svg width="362px" height="139px" viewBox="0 0 362 139" version="1.1" xmlns="http://www.w3.org/2000/svg" xmlns:xlink="http://www.w3.org/1999/xlink">
    <!-- Generator: Sketch 52.6 (67491) - http://www.bohemiancoding.com/sketch -->
    <title>khalti-logo-white</title>
    <desc>Created with Sketch.</desc>
    <g id="Page-1" stroke="none" stroke-width="1" fill="none" fill-rule="evenodd">
        <g id="khalti-logo-white" fill="#FFFFFF">
            <path d="M162.9,2.7 C161.5,1.1 159.5,0.2 157.2,0.2 L29.6,0.2 C27.3,0.2 25.3,1.1 23.9,2.7 C22.5,4.3 21.8,6.3 22.1,8.6 L31.2,96.1 C31.7,101.3 36,107.7 40.3,110.4 L85.4,136.9 C87.5,138.1 90.4,138.9 93.4,138.9 C96.4,138.9 99.3,138.2 101.4,136.9 L146.5,110.4 C151,107.9 155,101.3 155.6,96.1 L164.7,8.6 C164.9,6.4 164.3,4.3 162.9,2.7 Z M125.9,99.6 C122.3,102.1 117.2,101.1 114.8,97.5 L91.7,63.7 L77.8,77.6 L77.8,93 C77.8,97.4 74.2,101 69.8,101 C65.4,101 61.8,97.4 61.8,93 L61.8,26.3 C61.8,21.9 65.4,18.3 69.8,18.3 C74.2,18.3 77.8,21.9 77.8,26.3 L77.8,55 L112.2,20.6 C115.3,17.5 120.4,17.5 123.5,20.6 C126.6,23.7 126.6,28.8 123.5,31.9 L103.2,52.2 C103.3,52.3 103.3,52.3 103.4,52.4 L128,88.5 C130.5,92.1 129.5,97.1 125.9,99.6 Z" id="Shape" fill-rule="nonzero"></path>
            <path d="M361.8,31.9 L361.8,87.7 C361.8,95.3 355.7,101.4 348.1,101.4 L162.1,101.4 L162.6,95.5 L348.1,95.5 C352.3,95.5 355.9,91.9 355.9,87.7 L355.9,31.8 C355.9,27.6 352.3,24 348.1,24 L170.1,24 L170.6,18.1 L348.1,18.1 C355.7,18 361.8,24.3 361.8,31.9 Z" id="XMLID_32_"></path>
            <g id="XMLID_67_" transform="translate(181.000000, 38.000000)">
                <path d="M4.6,6.6 C4.6,5.7 4.1,5.4 3.4,5.4 L0.9,5.4 L0.9,0.4 L6.6,0.4 C9.3,0.4 10.5,1.1 10.5,4 L10.5,23.8 L13.2,23.8 C14.3,23.8 15.7,23.4 16.4,22.6 L23.5,12.8 L30.1,12.8 L21.9,24 C20.5,25.8 19.6,26.3 19.6,26.3 L19.6,26.5 C19.6,26.5 20.7,26.9 21.6,28.8 L26.1,37 C26.6,37.9 27.2,38.3 28.8,38.3 L30.6,38.3 L30.6,43.3 L26.3,43.3 C23.5,43.3 22.6,42.8 21.3,40.5 L15.8,30.3 C15.1,29.2 13.8,29.1 12.8,29.1 L10.5,29.1 L10.5,43.4 L4.6,43.4 L4.6,6.6 Z" id="XMLID_10_"></path>
            </g>
            <path d="M217.5,44.8 C217.5,43.9 217,43.6 216.3,43.6 L213.8,43.6 L213.8,38.6 L219.5,38.6 C222.2,38.6 223.4,39.7 223.4,42.3 L223.4,54.2 C223.4,55.6 223.2,56.7 223.2,56.7 L223.4,56.7 C224.6,53.7 228.6,49.9 234.6,49.9 C241.7,49.9 244.9,53.8 244.9,61.7 L244.9,74.9 C244.9,75.8 245.4,76.2 246.1,76.2 L248.6,76.2 L248.6,81.2 L242.9,81.2 C240.2,81.2 239,80.1 239,77.3 L239,63 C239,58.7 238.1,55.3 233.3,55.3 C228.7,55.3 224.9,58.5 223.7,62.8 C223.3,64 223.2,65.5 223.2,66.9 L223.2,81.2 L217.3,81.2 L217.5,44.8 Z" id="XMLID_9_"></path>
            <g id="XMLID_62_" transform="translate(252.000000, 49.000000)" fill-rule="nonzero">
                <path d="M12.5,28.2 C17.5,28.2 20.7,23 20.7,18.6 L20.7,17.5 L19.3,17.5 C14.8,17.5 7,17.7 7,23.4 C6.8,25.9 8.7,28.2 12.5,28.2 Z M19.2,13.2 L20.4,13.2 L20.4,12.8 C20.4,7.5 18.4,5.5 13.6,5.5 C12.2,5.5 8.6,5.9 8.6,7.8 L8.6,9.6 L3.1,9.6 L3.1,6.6 C3.1,1.6 10.8,0.9 13.6,0.9 C23.4,0.9 26.1,6.1 26.1,12.8 L26.1,25.8 C26.1,26.7 26.6,27.1 27.3,27.1 L29.8,27.1 L29.8,32 L24.3,32 C21.6,32 20.6,30.8 20.6,28.4 C20.6,27.3 20.8,26.6 20.8,26.6 L20.6,26.6 C20.6,26.6 18.1,32.7 11,32.7 C5.8,32.7 0.7,29.5 0.7,23.4 C0.9,13.9 14.3,13.2 19.2,13.2 Z" id="XMLID_63_"></path>
            </g>
            <g id="XMLID_60_" transform="translate(284.000000, 38.000000)">
                <path d="M2.9,5.7 L0.2,5.7 L0.2,0.7 L5.9,0.7 C8.6,0.7 9.8,1.8 9.8,4.6 L9.8,36.8 C9.8,37.7 10.3,38.1 11,38.1 L13.5,38.1 L13.5,43.1 L7.8,43.1 C5.1,43.1 3.9,42 3.9,39.2 L3.9,7 C4,7 4.2,5.7 2.9,5.7 Z" id="XMLID_6_"></path>
            </g>
            <path d="M304.2,55.3 L300.3,55.3 L300.3,50.7 L304.4,50.7 L304.4,42.2 L310.1,42.2 L310.1,50.7 L317.4,50.7 L317.4,55.3 L310.1,55.3 L310.1,69.2 C310.1,75.3 314.3,76.2 316.4,76.2 C317.3,76.2 317.9,76.2 317.9,76.2 L317.9,81 C317.9,81 317.2,81.2 315.9,81.2 C312,81.2 304.3,80 304.3,69.8 L304.3,55.4 L304.2,55.4 L304.2,55.3 Z" id="XMLID_5_"></path>
            <path d="M327.3,38.6 L330.9,38.6 C331.3,38.6 331.7,38.9 331.7,39.4 L331.7,43.9 C331.7,44.3 331.4,44.7 330.9,44.7 L327.3,44.7 C326.9,44.7 326.5,44.4 326.5,43.9 L326.5,39.4 C326.5,38.9 326.9,38.6 327.3,38.6 Z" id="XMLID_4_"></path>
            <path d="M326.3,56.9 C326.3,56 325.8,55.7 325.1,55.7 L322.6,55.7 L322.6,50.7 L328.3,50.7 C331,50.7 332.2,51.8 332.2,54.6 L332.2,74.9 C332.2,75.8 332.7,76.2 333.4,76.2 L335.9,76.2 L335.9,81.2 L330.2,81.2 C327.5,81.2 326.3,80.1 326.3,77.3 L326.3,56.9 Z" id="XMLID_3_"></path>
            <g id="XMLID_54_" transform="translate(0.000000, 23.000000)">
                <polygon id="XMLID_14_" points="15.2 0.4 0.2 2.4 5.8 47.2 20 45.6"></polygon>
            </g>
        </g>
    </g>
</svg>