<?xml version="1.0" encoding="UTF-8"?>
<svg width="363px" height="139px" viewBox="0 0 363 139" version="1.1" xmlns="http://www.w3.org/2000/svg" xmlns:xlink="http://www.w3.org/1999/xlink">
    <!-- Generator: Sketch 52.6 (67491) - http://www.bohemiancoding.com/sketch -->
    <title>khalti-logo-color</title>
    <desc>Created with Sketch.</desc>
    <g id="Page-1" stroke="none" stroke-width="1" fill="none" fill-rule="evenodd">
        <g id="khalti-logo-color">
            <path d="M163.4,2.7 C162,1.1 160,0.2 157.7,0.2 L30.1,0.2 C27.8,0.2 25.8,1.1 24.4,2.7 C23,4.3 22.3,6.3 22.6,8.6 L31.7,96.1 C32.2,101.3 36.5,107.7 40.8,110.4 L85.9,136.9 C88,138.1 90.9,138.9 93.9,138.9 C96.9,138.9 99.8,138.2 101.9,136.9 L147,110.3 C151.5,107.8 155.5,101.2 156.1,96 L165.2,8.5 C165.4,6.5 164.8,4.3 163.4,2.7 Z" id="XMLID_13_" fill="#5C2D90"></path>
            <path d="M126.4,99.6 C122.8,102.1 117.8,101.1 115.3,97.5 L92.2,63.7 L78.3,77.7 L78.3,93 C78.3,97.4 74.7,101 70.3,101 C65.9,101 62.3,97.4 62.3,93 L62.3,26.3 C62.3,21.9 65.9,18.3 70.3,18.3 C74.7,18.3 78.3,21.9 78.3,26.3 L78.3,55 L112.7,20.6 C115.8,17.5 120.9,17.5 124,20.6 C127.1,23.7 127.1,28.8 124,31.9 L103.7,52.2 C103.8,52.3 103.8,52.3 103.9,52.4 L128.5,88.5 C131,92.2 130,97.2 126.4,99.6 Z" id="XMLID_12_" fill="#FFFFFF"></path>
            <path d="M362.3,32 L362.3,87.8 C362.3,95.4 356.2,101.5 348.6,101.5 L162.6,101.5 L163.1,95.6 L348.6,95.6 C352.8,95.6 356.4,92 356.4,87.8 L356.4,31.9 C356.4,27.7 352.8,24.1 348.6,24.1 L170.6,24.1 L171.1,18.2 L348.6,18.2 C356.2,18.1 362.3,24.3 362.3,32 Z" id="XMLID_32_" fill="#5C2D90"></path>
            <g id="XMLID_67_" transform="translate(182.000000, 38.000000)" fill="#5C2D90">
                <g id="XMLID_10_-link">
                    <path d="M4.1,6.7 C4.1,5.8 3.6,5.5 2.9,5.5 L0.4,5.5 L0.4,0.5 L6.1,0.5 C8.8,0.5 10,1.2 10,4.1 L10,23.9 L12.7,23.9 C13.8,23.9 15.2,23.5 15.9,22.7 L23,12.9 L29.6,12.9 L21.4,24.1 C20,25.9 19.1,26.4 19.1,26.4 L19.1,26.6 C19.1,26.6 20.2,27 21.1,28.9 L25.6,37.1 C26.1,38 26.7,38.4 28.3,38.4 L30.1,38.4 L30.1,43.4 L25.8,43.4 C23,43.4 22.1,42.9 20.8,40.6 L15.3,30.4 C14.6,29.3 13.3,29.2 12.3,29.2 L10,29.2 L10,43.5 L4,43.5 L4.1,6.7 Z" id="XMLID_10_"></path>
                </g>
            </g>
            <path d="M218,44.8 C218,43.9 217.5,43.6 216.8,43.6 L214.3,43.6 L214.3,38.6 L220,38.6 C222.7,38.6 223.9,39.7 223.9,42.3 L223.9,54.2 C223.9,55.6 223.7,56.7 223.7,56.7 L223.9,56.7 C225.1,53.7 229.1,49.9 235.1,49.9 C242.2,49.9 245.4,53.8 245.4,61.7 L245.4,75 C245.4,75.9 245.9,76.3 246.6,76.3 L249.1,76.3 L249.1,81.3 L243.4,81.3 C240.7,81.3 239.5,80.2 239.5,77.4 L239.5,63 C239.5,58.7 238.6,55.3 233.8,55.3 C229.2,55.3 225.4,58.5 224.2,62.8 C223.8,64 223.7,65.5 223.7,66.9 L223.7,81.2 L217.8,81.2 L218,44.8 Z" id="XMLID_9_" fill="#5C2D90"></path>
            <g id="XMLID_62_" transform="translate(253.000000, 50.000000)" fill="#5C2D90" fill-rule="nonzero">
                <g id="XMLID_63_-link">
                    <path d="M12,27.2 C17,27.2 20.2,22 20.2,17.6 L20.2,16.5 L18.8,16.5 C14.3,16.5 6.5,16.7 6.5,22.4 C6.3,24.9 8.2,27.2 12,27.2 Z M18.7,12.3 L19.9,12.3 L19.9,11.9 C19.9,6.6 17.9,4.6 13.1,4.6 C11.7,4.6 8.1,5 8.1,6.9 L8.1,8.7 L2.6,8.7 L2.6,5.7 C2.6,0.7 10.3,2.84217094e-14 13.1,2.84217094e-14 C22.9,2.84217094e-14 25.6,5.2 25.6,11.9 L25.6,24.9 C25.6,25.8 26.1,26.2 26.8,26.2 L29.3,26.2 L29.3,31.1 L23.8,31.1 C21.1,31.1 20.1,29.9 20.1,27.5 C20.1,26.4 20.3,25.7 20.3,25.7 L20.1,25.7 C20.1,25.7 17.6,31.8 10.5,31.8 C5.3,31.8 0.2,28.6 0.2,22.5 C0.4,13 13.8,12.3 18.7,12.3 Z" id="XMLID_63_"></path>
                </g>
            </g>
            <g id="XMLID_60_" transform="translate(284.000000, 38.000000)" fill="#5C2D90">
                <g id="XMLID_6_-link">
                    <path d="M3.4,5.8 L0.7,5.8 L0.7,0.8 L6.4,0.8 C9.1,0.8 10.3,1.9 10.3,4.7 L10.3,37 C10.3,37.9 10.8,38.3 11.5,38.3 L14,38.3 L14,43.3 L8.3,43.3 C5.6,43.3 4.4,42.2 4.4,39.4 L4.4,7 C4.5,7 4.7,5.8 3.4,5.8 Z" id="XMLID_6_"></path>
                </g>
            </g>
            <path d="M304.7,55.4 L300.8,55.4 L300.8,50.8 L304.9,50.8 L304.9,42.3 L310.6,42.3 L310.6,50.8 L317.9,50.8 L317.9,55.4 L310.6,55.4 L310.6,69.3 C310.6,75.4 314.8,76.3 316.9,76.3 C317.8,76.3 318.4,76.3 318.4,76.3 L318.4,81.1 C318.4,81.1 317.7,81.3 316.4,81.3 C312.5,81.3 304.8,80.1 304.8,69.9 L304.8,55.5 L304.7,55.5 L304.7,55.4 Z" id="XMLID_5_" fill="#5C2D90"></path>
            <path d="M327.8,38.6 L331.4,38.6 C331.8,38.6 332.2,38.9 332.2,39.4 L332.2,43.9 C332.2,44.3 331.9,44.7 331.4,44.7 L327.8,44.7 C327.4,44.7 327,44.4 327,43.9 L327,39.4 C327,39 327.4,38.6 327.8,38.6 Z" id="XMLID_4_" fill="#5C2D90"></path>
            <path d="M326.8,57 C326.8,56.1 326.3,55.8 325.6,55.8 L323.1,55.8 L323.1,50.8 L328.8,50.8 C331.5,50.8 332.7,51.9 332.7,54.7 L332.7,75 C332.7,75.9 333.2,76.3 333.9,76.3 L336.4,76.3 L336.4,81.3 L330.7,81.3 C328,81.3 326.8,80.2 326.8,77.4 L326.8,57 Z" id="XMLID_3_" fill="#5C2D90"></path>
            <g id="XMLID_54_" transform="translate(0.000000, 23.000000)" fill="#F9A51A">
                <g id="XMLID_14_-link">
                    <polygon id="XMLID_14_" points="15.7 0.5 0.7 2.4 6.3 47.3 20.5 45.7"></polygon>
                </g>
            </g>
        </g>
    </g>
</svg>